# xmcd CD database file
#
# Track frame offsets:
#	150
#	19011
#	46047
#	57960
#	81128
#	111698
#	135820
#	158643
#	184847
#	211622
#
# Disc length: 3186 seconds
#
# Revision: 0
# Processed by: cddbd v1.5.2PL0 Copyright (c) Steve Scherf et al.
# Submitted via: CDex 1.51
#
DISCID=760c700a
DTITLE=Paul McKenna - Rain
DYEAR=2003
DGENRE=Country
TTITLE0=Rain
TTITLE1=One More Tequila
TTITLE2=Open and True
TTITLE3=Run Away With Me Shania
TTITLE4=Alone
TTITLE5=Rooster Tail
TTITLE6=You and I Are One
TTITLE7=My Mistake
TTITLE8=Thank You
TTITLE9=Cowgirl
EXTD=YEAR: 2003
EXTT0=
EXTT1=
EXTT2=
EXTT3=
EXTT4=
EXTT5=
EXTT6=
EXTT7=
EXTT8=
EXTT9=
PLAYORDER=
